<?xml version="1.0" encoding="UTF-8" standalone="no"?>
<!DOCTYPE svg PUBLIC "-//W3C//DTD SVG 1.1//EN"
 "http://www.w3.org/Graphics/SVG/1.1/DTD/svg11.dtd">
<!-- Generated by graphviz version 2.40.1 (20161225.0304)
 -->
<!-- Title: %3 Pages: 1 -->
<svg width="3591pt" height="673pt"
 viewBox="0.00 0.00 3591.29 673.22" xmlns="http://www.w3.org/2000/svg" xmlns:xlink="http://www.w3.org/1999/xlink">
<g id="graph0" class="graph" transform="scale(1 1) rotate(0) translate(4 669.2203)">
<title>%3</title>
<polygon fill="#ffffff" stroke="transparent" points="-4,4 -4,-669.2203 3587.2895,-669.2203 3587.2895,4 -4,4"/>
<!-- otr4j -->
<g id="node1" class="node">
<title>otr4j</title>
<ellipse fill="none" stroke="#000000" cx="1310" cy="-647.2203" rx="81.7856" ry="18"/>
<text text-anchor="middle" x="1310" y="-643.5203" font-family="Times,serif" font-size="14.00" fill="#000000">OTRv4 support</text>
</g>
<!-- otrv4_identifiers -->
<g id="node3" class="node">
<title>otrv4_identifiers</title>
<ellipse fill="none" stroke="#000000" cx="190" cy="-575.2203" rx="135.3763" ry="18"/>
<text text-anchor="middle" x="190" y="-571.5203" font-family="Times,serif" font-size="14.00" fill="#000000">OTRv4 protocol identifiers</text>
</g>
<!-- otr4j&#45;&gt;otrv4_identifiers -->
<g id="edge2" class="edge">
<title>otr4j&#45;&gt;otrv4_identifiers</title>
<path fill="none" stroke="#000000" d="M1228.8844,-644.6283C1061.4,-638.8586 665.2784,-623.0538 334,-593.2203 321.4025,-592.0859 308.208,-590.7041 295.1352,-589.2157"/>
<polygon fill="#000000" stroke="#000000" points="295.5109,-585.7359 285.1739,-588.059 294.7034,-592.6892 295.5109,-585.7359"/>
</g>
<!-- otrv4_message_parsing -->
<g id="node4" class="node">
<title>otrv4_message_parsing</title>
<ellipse fill="none" stroke="#000000" cx="484" cy="-575.2203" rx="141.075" ry="18"/>
<text text-anchor="middle" x="484" y="-571.5203" font-family="Times,serif" font-size="14.00" fill="#000000">Message parsing for OTRv4</text>
</g>
<!-- otr4j&#45;&gt;otrv4_message_parsing -->
<g id="edge3" class="edge">
<title>otr4j&#45;&gt;otrv4_message_parsing</title>
<path fill="none" stroke="#000000" d="M1231.6652,-641.8174C1106.3637,-632.9722 853.1547,-614.2658 639,-593.2203 625.3322,-591.8772 610.9992,-590.3601 596.8006,-588.7907"/>
<polygon fill="#000000" stroke="#000000" points="596.8235,-585.2716 586.4969,-587.6404 596.0468,-592.2284 596.8235,-585.2716"/>
</g>
<!-- serialization -->
<g id="node8" class="node">
<title>serialization</title>
<ellipse fill="none" stroke="#000000" cx="869" cy="-350.3503" rx="132.6765" ry="18"/>
<text text-anchor="middle" x="869" y="-346.6503" font-family="Times,serif" font-size="14.00" fill="#000000">Serialization of data types</text>
</g>
<!-- otr4j&#45;&gt;serialization -->
<g id="edge1" class="edge">
<title>otr4j&#45;&gt;serialization</title>
<path fill="none" stroke="#000000" d="M1311.0834,-629.0791C1312.028,-596.1066 1309.1694,-525.9992 1272,-485.2203 1228.4263,-437.4153 1055.4804,-391.8244 950.8279,-367.8417"/>
<polygon fill="#000000" stroke="#000000" points="951.4472,-364.3933 940.9201,-365.5889 949.8951,-371.2191 951.4472,-364.3933"/>
</g>
<!-- interactive_DAKE -->
<g id="node9" class="node">
<title>interactive_DAKE</title>
<ellipse fill="none" stroke="#000000" cx="988" cy="-575.2203" rx="92.8835" ry="18"/>
<text text-anchor="middle" x="988" y="-571.5203" font-family="Times,serif" font-size="14.00" fill="#000000">Interactive DAKE</text>
</g>
<!-- otr4j&#45;&gt;interactive_DAKE -->
<g id="edge5" class="edge">
<title>otr4j&#45;&gt;interactive_DAKE</title>
<path fill="none" stroke="#000000" d="M1252.4329,-634.3482C1198.2249,-622.2272 1116.8882,-604.0401 1058.7477,-591.0397"/>
<polygon fill="#000000" stroke="#000000" points="1059.4227,-587.6043 1048.8999,-588.8377 1057.8951,-594.4356 1059.4227,-587.6043"/>
</g>
<!-- remapping_tlv_types -->
<g id="node15" class="node">
<title>remapping_tlv_types</title>
<ellipse fill="none" stroke="#000000" cx="3133" cy="-431.2203" rx="195.7654" ry="18"/>
<text text-anchor="middle" x="3133" y="-427.5203" font-family="Times,serif" font-size="14.00" fill="#000000">Remapping TLV types in case of OTRv4</text>
</g>
<!-- otr4j&#45;&gt;remapping_tlv_types -->
<g id="edge4" class="edge">
<title>otr4j&#45;&gt;remapping_tlv_types</title>
<path fill="none" stroke="#000000" d="M1390.0891,-643.4342C1684.8174,-629.1136 2698.9818,-576.2751 2833,-521.2203 2856.055,-511.7493 2853.5791,-496.1079 2876,-485.2203 2913.4149,-467.0516 2956.8004,-454.9745 2997.1499,-446.9547"/>
<polygon fill="#000000" stroke="#000000" points="2997.9023,-450.3743 3007.0636,-445.0525 2996.5832,-443.4997 2997.9023,-450.3743"/>
</g>
<!-- key_management -->
<g id="node16" class="node">
<title>key_management</title>
<ellipse fill="none" stroke="#000000" cx="1378" cy="-431.2203" rx="90.9839" ry="18"/>
<text text-anchor="middle" x="1378" y="-427.5203" font-family="Times,serif" font-size="14.00" fill="#000000">Key management</text>
</g>
<!-- otr4j&#45;&gt;key_management -->
<g id="edge6" class="edge">
<title>otr4j&#45;&gt;key_management</title>
<path fill="none" stroke="#000000" d="M1315.6807,-629.1758C1327.5557,-591.4553 1355.0755,-504.0392 1369.2356,-459.0603"/>
<polygon fill="#000000" stroke="#000000" points="1372.6232,-459.9549 1372.2877,-449.3654 1365.9463,-457.8529 1372.6232,-459.9549"/>
</g>
<!-- session_management -->
<g id="node18" class="node">
<title>session_management</title>
<ellipse fill="none" stroke="#000000" cx="1467" cy="-575.2203" rx="109.6807" ry="18"/>
<text text-anchor="middle" x="1467" y="-571.5203" font-family="Times,serif" font-size="14.00" fill="#000000">Session management</text>
</g>
<!-- otr4j&#45;&gt;session_management -->
<g id="edge7" class="edge">
<title>otr4j&#45;&gt;session_management</title>
<path fill="none" stroke="#000000" d="M1345.6257,-630.8824C1367.8295,-620.6998 1396.6347,-607.4898 1420.611,-596.4943"/>
<polygon fill="#000000" stroke="#000000" points="1422.2464,-599.5949 1429.8771,-592.2449 1419.3284,-593.232 1422.2464,-599.5949"/>
</g>
<!-- user_profile -->
<g id="node20" class="node">
<title>user_profile</title>
<ellipse fill="#ffa500" stroke="#ffa500" cx="462" cy="-431.2203" rx="66.0889" ry="18"/>
<text text-anchor="middle" x="462" y="-427.5203" font-family="Times,serif" font-size="14.00" fill="#000000">User profile</text>
</g>
<!-- otr4j&#45;&gt;user_profile -->
<g id="edge8" class="edge">
<title>otr4j&#45;&gt;user_profile</title>
<path fill="none" stroke="#000000" d="M1230.9571,-642.1972C1145.1164,-635.5773 1004.4093,-621.3181 886,-593.2203 792.4497,-571.0214 769.2876,-561.5357 682,-521.2203 653.0725,-507.8597 648.9937,-498.4367 620,-485.2203 586.9162,-470.1396 548.3236,-456.8738 517.5619,-447.2646"/>
<polygon fill="#000000" stroke="#000000" points="518.4538,-443.8771 507.8664,-444.2756 516.3914,-450.5664 518.4538,-443.8771"/>
</g>
<!-- protocol_state_machine -->
<g id="node39" class="node">
<title>protocol_state_machine</title>
<ellipse fill="none" stroke="#000000" cx="3465" cy="-431.2203" rx="118.0794" ry="18"/>
<text text-anchor="middle" x="3465" y="-427.5203" font-family="Times,serif" font-size="14.00" fill="#000000">Protocol state machine</text>
</g>
<!-- otr4j&#45;&gt;protocol_state_machine -->
<g id="edge9" class="edge">
<title>otr4j&#45;&gt;protocol_state_machine</title>
<path fill="none" stroke="#000000" d="M1392.1417,-646.4505C1579.9652,-644.0086 2055.0759,-633.963 2450,-593.2203 2799.161,-557.1989 3211.0136,-480.8868 3383.0651,-447.4692"/>
<polygon fill="#000000" stroke="#000000" points="3383.9122,-450.8701 3393.0592,-445.5238 3382.5747,-443.999 3383.9122,-450.8701"/>
</g>
<!-- otrv4_SMP -->
<g id="node41" class="node">
<title>otrv4_SMP</title>
<ellipse fill="none" stroke="#000000" cx="2986" cy="-575.2203" rx="67.6881" ry="18"/>
<text text-anchor="middle" x="2986" y="-571.5203" font-family="Times,serif" font-size="14.00" fill="#000000">OTRv4 SMP</text>
</g>
<!-- otr4j&#45;&gt;otrv4_SMP -->
<g id="edge10" class="edge">
<title>otr4j&#45;&gt;otrv4_SMP</title>
<path fill="none" stroke="#000000" d="M1391.8726,-646.4181C1674.3303,-643.3421 2606.9424,-630.5395 2904,-593.2203 2911.3403,-592.2982 2918.9934,-591.0341 2926.5467,-589.5999"/>
<polygon fill="#000000" stroke="#000000" points="2927.2656,-593.0255 2936.3842,-587.631 2925.8918,-586.1617 2927.2656,-593.0255"/>
</g>
<!-- extra -->
<g id="node2" class="node">
<title>extra</title>
<ellipse fill="none" stroke="#000000" cx="1877" cy="-503.2203" rx="87.1846" ry="18"/>
<text text-anchor="middle" x="1877" y="-499.5203" font-family="Times,serif" font-size="14.00" fill="#000000">&quot;Extra&quot; features</text>
</g>
<!-- offline_support -->
<g id="node25" class="node">
<title>offline_support</title>
<ellipse fill="none" stroke="#000000" cx="1629" cy="-431.2203" rx="141.8751" ry="18"/>
<text text-anchor="middle" x="1629" y="-427.5203" font-family="Times,serif" font-size="14.00" fill="#000000">Support for off&#45;line contacts</text>
</g>
<!-- extra&#45;&gt;offline_support -->
<g id="edge11" class="edge">
<title>extra&#45;&gt;offline_support</title>
<path fill="none" stroke="#000000" d="M1826.2151,-488.4763C1788.5627,-477.545 1736.8788,-462.54 1695.8663,-450.6331"/>
<polygon fill="#000000" stroke="#000000" points="1696.8003,-447.2599 1686.221,-447.8329 1694.8486,-453.9823 1696.8003,-447.2599"/>
</g>
<!-- otrv4_extra_symmetric_key -->
<g id="node27" class="node">
<title>otrv4_extra_symmetric_key</title>
<ellipse fill="none" stroke="#000000" cx="2298" cy="-350.3503" rx="152.0559" ry="26.7407"/>
<text text-anchor="middle" x="2298" y="-354.1503" font-family="Times,serif" font-size="14.00" fill="#000000">Extra symmetric key</text>
<text text-anchor="middle" x="2298" y="-339.1503" font-family="Times,serif" font-size="14.00" fill="#000000">from OTRv4 shared secrets</text>
</g>
<!-- extra&#45;&gt;otrv4_extra_symmetric_key -->
<g id="edge12" class="edge">
<title>extra&#45;&gt;otrv4_extra_symmetric_key</title>
<path fill="none" stroke="#000000" d="M1852.1487,-485.9027C1827.9075,-466.9512 1797.4604,-436.2083 1818,-413.2203 1865.5317,-360.0229 2066.3479,-387.0956 2137,-377.2203 2150.7958,-375.2921 2165.2297,-373.1136 2179.5479,-370.8521"/>
<polygon fill="#000000" stroke="#000000" points="2180.1091,-374.3069 2189.4328,-369.2753 2179.0063,-367.3943 2180.1091,-374.3069"/>
</g>
<!-- introduce_OTR_errorno_notation -->
<g id="node28" class="node">
<title>introduce_OTR_errorno_notation</title>
<ellipse fill="none" stroke="#000000" cx="1955" cy="-431.2203" rx="128.0773" ry="18"/>
<text text-anchor="middle" x="1955" y="-427.5203" font-family="Times,serif" font-size="14.00" fill="#000000">Parsing OTR Error codes</text>
</g>
<!-- extra&#45;&gt;introduce_OTR_errorno_notation -->
<g id="edge13" class="edge">
<title>extra&#45;&gt;introduce_OTR_errorno_notation</title>
<path fill="none" stroke="#000000" d="M1896.2809,-485.4226C1905.9373,-476.509 1917.7824,-465.5751 1928.2984,-455.868"/>
<polygon fill="#000000" stroke="#000000" points="1930.6965,-458.4175 1935.6706,-449.0629 1925.9485,-453.2739 1930.6965,-458.4175"/>
</g>
<!-- attach_encrypted_message_during_DAKE -->
<g id="node40" class="node">
<title>attach_encrypted_message_during_DAKE</title>
<ellipse fill="none" stroke="#000000" cx="2301" cy="-431.2203" rx="200.3646" ry="18"/>
<text text-anchor="middle" x="2301" y="-427.5203" font-family="Times,serif" font-size="14.00" fill="#000000">Attach encrypted message during DAKE</text>
</g>
<!-- extra&#45;&gt;attach_encrypted_message_during_DAKE -->
<g id="edge14" class="edge">
<title>extra&#45;&gt;attach_encrypted_message_during_DAKE</title>
<path fill="none" stroke="#000000" d="M1944.6529,-491.7321C2012.7014,-480.1767 2118.5368,-462.2047 2197.2086,-448.8453"/>
<polygon fill="#000000" stroke="#000000" points="2197.8759,-452.2822 2207.1488,-447.1573 2196.704,-445.381 2197.8759,-452.2822"/>
</g>
<!-- otrv4_whitespace_tag -->
<g id="node44" class="node">
<title>otrv4_whitespace_tag</title>
<ellipse fill="none" stroke="#000000" cx="498" cy="-503.2203" rx="113.18" ry="18"/>
<text text-anchor="middle" x="498" y="-499.5203" font-family="Times,serif" font-size="14.00" fill="#000000">otrv4_whitespace_tag</text>
</g>
<!-- otrv4_message_parsing&#45;&gt;otrv4_whitespace_tag -->
<g id="edge15" class="edge">
<title>otrv4_message_parsing&#45;&gt;otrv4_whitespace_tag</title>
<path fill="none" stroke="#000000" d="M487.5328,-557.0517C489.0301,-549.3513 490.8105,-540.1947 492.4745,-531.637"/>
<polygon fill="#000000" stroke="#000000" points="495.9465,-532.1178 494.4196,-521.6336 489.0752,-530.7817 495.9465,-532.1178"/>
</g>
<!-- otrv4_query_message -->
<g id="node45" class="node">
<title>otrv4_query_message</title>
<ellipse fill="none" stroke="#000000" cx="254" cy="-503.2203" rx="112.3801" ry="18"/>
<text text-anchor="middle" x="254" y="-499.5203" font-family="Times,serif" font-size="14.00" fill="#000000">otrv4_query_message</text>
</g>
<!-- otrv4_message_parsing&#45;&gt;otrv4_query_message -->
<g id="edge16" class="edge">
<title>otrv4_message_parsing&#45;&gt;otrv4_query_message</title>
<path fill="none" stroke="#000000" d="M430.6553,-558.5211C396.2062,-547.7371 351.2773,-533.6724 315.3513,-522.426"/>
<polygon fill="#000000" stroke="#000000" points="316.0623,-518.9811 305.4733,-519.3337 313.971,-525.6614 316.0623,-518.9811"/>
</g>
<!-- crypto_datatypes -->
<g id="node5" class="node">
<title>crypto_datatypes</title>
<ellipse fill="none" stroke="#000000" cx="866" cy="-260.6102" rx="129.9769" ry="18"/>
<text text-anchor="middle" x="866" y="-256.9102" font-family="Times,serif" font-size="14.00" fill="#000000">Cryptographic data types</text>
</g>
<!-- ed448_crypto_primitives -->
<g id="node7" class="node">
<title>ed448_crypto_primitives</title>
<ellipse fill="#ffa500" stroke="#ffa500" cx="1505" cy="-98.8701" rx="137.7717" ry="26.7407"/>
<text text-anchor="middle" x="1505" y="-102.6701" font-family="Times,serif" font-size="14.00" fill="#000000">ED448&#45;Goldilocks</text>
<text text-anchor="middle" x="1505" y="-87.6701" font-family="Times,serif" font-size="14.00" fill="#000000">cryptographic primitives</text>
</g>
<!-- crypto_datatypes&#45;&gt;ed448_crypto_primitives -->
<g id="edge20" class="edge">
<title>crypto_datatypes&#45;&gt;ed448_crypto_primitives</title>
<path fill="none" stroke="#000000" d="M941.7303,-245.8775C962.2558,-241.91 984.475,-237.6382 1005,-233.7401 1090.725,-217.4595 1113.4121,-219.1576 1198,-197.7401 1278.2502,-177.4209 1368.1985,-147.5964 1429.8792,-126.0219"/>
<polygon fill="#000000" stroke="#000000" points="1431.2546,-129.2485 1439.5301,-122.6329 1428.9352,-122.6439 1431.2546,-129.2485"/>
</g>
<!-- ring_signatures -->
<g id="node14" class="node">
<title>ring_signatures</title>
<ellipse fill="none" stroke="#000000" cx="746" cy="-179.7401" rx="85.5853" ry="18"/>
<text text-anchor="middle" x="746" y="-176.0401" font-family="Times,serif" font-size="14.00" fill="#000000">Ring Signatures</text>
</g>
<!-- crypto_datatypes&#45;&gt;ring_signatures -->
<g id="edge21" class="edge">
<title>crypto_datatypes&#45;&gt;ring_signatures</title>
<path fill="none" stroke="#000000" d="M839.6655,-242.8629C822.1954,-231.0895 799.0953,-215.5219 780.2071,-202.7929"/>
<polygon fill="#000000" stroke="#000000" points="782.1092,-199.8541 771.8605,-197.1679 778.1972,-205.659 782.1092,-199.8541"/>
</g>
<!-- public_keys -->
<g id="node29" class="node">
<title>public_keys</title>
<ellipse fill="#ffa500" stroke="#ffa500" cx="1108" cy="-179.7401" rx="64.189" ry="18"/>
<text text-anchor="middle" x="1108" y="-176.0401" font-family="Times,serif" font-size="14.00" fill="#000000">Public keys</text>
</g>
<!-- crypto_datatypes&#45;&gt;public_keys -->
<g id="edge22" class="edge">
<title>crypto_datatypes&#45;&gt;public_keys</title>
<path fill="none" stroke="#000000" d="M915.8491,-243.9519C957.0956,-230.1684 1015.4497,-210.668 1057.0081,-196.7803"/>
<polygon fill="#000000" stroke="#000000" points="1058.2868,-200.0433 1066.6619,-193.5542 1056.0681,-193.4042 1058.2868,-200.0433"/>
</g>
<!-- fingerprints -->
<g id="node30" class="node">
<title>fingerprints</title>
<ellipse fill="#ffa500" stroke="#ffa500" cx="1087" cy="-98.8701" rx="69.5877" ry="18"/>
<text text-anchor="middle" x="1087" y="-95.1701" font-family="Times,serif" font-size="14.00" fill="#000000">Fingerprints</text>
</g>
<!-- crypto_datatypes&#45;&gt;fingerprints -->
<g id="edge24" class="edge">
<title>crypto_datatypes&#45;&gt;fingerprints</title>
<path fill="none" stroke="#000000" d="M941.1572,-245.9087C1034.0264,-227.7003 1180.0358,-198.9158 1181,-197.7401 1204.3006,-169.3295 1164.8402,-139.0437 1130.1287,-119.589"/>
<polygon fill="#000000" stroke="#000000" points="1131.4457,-116.3222 1120.9849,-114.642 1128.1147,-122.4789 1131.4457,-116.3222"/>
</g>
<!-- shared_prekeys -->
<g id="node31" class="node">
<title>shared_prekeys</title>
<ellipse fill="none" stroke="#000000" cx="938" cy="-179.7401" rx="87.9851" ry="18"/>
<text text-anchor="middle" x="938" y="-176.0401" font-family="Times,serif" font-size="14.00" fill="#000000">Shared Pre&#45;Keys</text>
</g>
<!-- crypto_datatypes&#45;&gt;shared_prekeys -->
<g id="edge23" class="edge">
<title>crypto_datatypes&#45;&gt;shared_prekeys</title>
<path fill="none" stroke="#000000" d="M881.9791,-242.6625C891.7668,-231.669 904.4495,-217.4239 915.2716,-205.2685"/>
<polygon fill="#000000" stroke="#000000" points="918.03,-207.4338 922.0655,-197.6376 912.8018,-202.7791 918.03,-207.4338"/>
</g>
<!-- otrv4DH -->
<g id="node6" class="node">
<title>otrv4DH</title>
<ellipse fill="#ffa500" stroke="#ffa500" cx="1582" cy="-260.6102" rx="105.8812" ry="18"/>
<text text-anchor="middle" x="1582" y="-256.9102" font-family="Times,serif" font-size="14.00" fill="#000000">DH (OTRv4 params)</text>
</g>
<!-- serialization&#45;&gt;crypto_datatypes -->
<g id="edge17" class="edge">
<title>serialization&#45;&gt;crypto_datatypes</title>
<path fill="none" stroke="#000000" d="M868.3929,-332.19C867.9781,-319.7831 867.4202,-303.0924 866.9474,-288.9492"/>
<polygon fill="#000000" stroke="#000000" points="870.4384,-288.6209 866.6062,-278.7434 863.4424,-288.8548 870.4384,-288.6209"/>
</g>
<!-- encoding_decoding -->
<g id="node13" class="node">
<title>encoding_decoding</title>
<ellipse fill="#ffa500" stroke="#ffa500" cx="1179" cy="-260.6102" rx="165.1707" ry="18"/>
<text text-anchor="middle" x="1179" y="-256.9102" font-family="Times,serif" font-size="14.00" fill="#000000">Encoding/Decoding of data types</text>
</g>
<!-- serialization&#45;&gt;encoding_decoding -->
<g id="edge18" class="edge">
<title>serialization&#45;&gt;encoding_decoding</title>
<path fill="none" stroke="#000000" d="M925.4983,-333.9949C977.7229,-318.8767 1055.4213,-296.3843 1111.0205,-280.2892"/>
<polygon fill="#000000" stroke="#000000" points="1112.1536,-283.6049 1120.7859,-277.4622 1110.207,-276.881 1112.1536,-283.6049"/>
</g>
<!-- DAKE_message_identity -->
<g id="node10" class="node">
<title>DAKE_message_identity</title>
<ellipse fill="#ffa500" stroke="#ffa500" cx="1129" cy="-503.2203" rx="133.7763" ry="18"/>
<text text-anchor="middle" x="1129" y="-499.5203" font-family="Times,serif" font-size="14.00" fill="#000000">DAKE message: &quot;Identity&quot;</text>
</g>
<!-- interactive_DAKE&#45;&gt;DAKE_message_identity -->
<g id="edge29" class="edge">
<title>interactive_DAKE&#45;&gt;DAKE_message_identity</title>
<path fill="none" stroke="#000000" d="M1021.0582,-558.3395C1040.3443,-548.4914 1064.8966,-535.954 1085.7109,-525.3254"/>
<polygon fill="#000000" stroke="#000000" points="1087.3622,-528.4122 1094.6766,-520.7472 1084.1788,-522.1779 1087.3622,-528.4122"/>
</g>
<!-- DAKE_message_auth_r -->
<g id="node11" class="node">
<title>DAKE_message_auth_r</title>
<ellipse fill="#ffa500" stroke="#ffa500" cx="848" cy="-503.2203" rx="128.8774" ry="18"/>
<text text-anchor="middle" x="848" y="-499.5203" font-family="Times,serif" font-size="14.00" fill="#000000">DAKE message: &quot;Auth R&quot;</text>
</g>
<!-- interactive_DAKE&#45;&gt;DAKE_message_auth_r -->
<g id="edge30" class="edge">
<title>interactive_DAKE&#45;&gt;DAKE_message_auth_r</title>
<path fill="none" stroke="#000000" d="M955.1762,-558.3395C936.027,-548.4914 911.6488,-535.954 890.9821,-525.3254"/>
<polygon fill="#000000" stroke="#000000" points="892.5736,-522.2082 882.08,-520.7472 889.3722,-528.4333 892.5736,-522.2082"/>
</g>
<!-- DAKE_message_auth_i -->
<g id="node12" class="node">
<title>DAKE_message_auth_i</title>
<ellipse fill="#ffa500" stroke="#ffa500" cx="672" cy="-431.2203" rx="126.1777" ry="18"/>
<text text-anchor="middle" x="672" y="-427.5203" font-family="Times,serif" font-size="14.00" fill="#000000">DAKE message: &quot;Auth I&quot;</text>
</g>
<!-- interactive_DAKE&#45;&gt;DAKE_message_auth_i -->
<g id="edge31" class="edge">
<title>interactive_DAKE&#45;&gt;DAKE_message_auth_i</title>
<path fill="none" stroke="#000000" d="M903.7357,-567.5766C833.1097,-559.6245 739.2566,-544.955 710,-521.2203 691.1567,-505.9335 681.5067,-479.6254 676.6596,-459.3884"/>
<polygon fill="#000000" stroke="#000000" points="680.0488,-458.4993 674.5395,-449.4496 673.2028,-459.9598 680.0488,-458.4993"/>
</g>
<!-- DAKE_message_identity&#45;&gt;otrv4DH -->
<g id="edge35" class="edge">
<title>DAKE_message_identity&#45;&gt;otrv4DH</title>
<path fill="none" stroke="#000000" d="M1170.6726,-486.0105C1187.6736,-477.1894 1206.2829,-464.9484 1219,-449.2203 1256.1351,-403.2933 1217.5052,-362.32 1262,-323.4802 1270.929,-315.686 1405.123,-291.1836 1496.8673,-275.1692"/>
<polygon fill="#000000" stroke="#000000" points="1497.7459,-278.569 1506.9972,-273.4053 1496.545,-271.6728 1497.7459,-278.569"/>
</g>
<!-- DAKE_message_identity&#45;&gt;serialization -->
<g id="edge36" class="edge">
<title>DAKE_message_identity&#45;&gt;serialization</title>
<path fill="none" stroke="#000000" d="M1098.9207,-485.5349C1051.6614,-457.7482 960.0385,-403.8774 907.8542,-373.1951"/>
<polygon fill="#000000" stroke="#000000" points="909.604,-370.1637 899.2096,-368.1124 906.056,-376.198 909.604,-370.1637"/>
</g>
<!-- DAKE_message_identity&#45;&gt;key_management -->
<g id="edge33" class="edge">
<title>DAKE_message_identity&#45;&gt;key_management</title>
<path fill="none" stroke="#000000" d="M1185.502,-486.8824C1224.6064,-475.5751 1276.6212,-460.5347 1316.7232,-448.9389"/>
<polygon fill="#000000" stroke="#000000" points="1317.7516,-452.285 1326.3858,-446.1449 1315.8071,-445.5605 1317.7516,-452.285"/>
</g>
<!-- DAKE_message_identity&#45;&gt;user_profile -->
<g id="edge32" class="edge">
<title>DAKE_message_identity&#45;&gt;user_profile</title>
<path fill="none" stroke="#000000" d="M1033.3024,-490.5674C1017.5135,-488.6544 1001.3078,-486.7966 986,-485.2203 786.8571,-464.714 734.7094,-480.6756 537,-449.2203 531.3239,-448.3173 525.4428,-447.2111 519.5851,-445.9952"/>
<polygon fill="#000000" stroke="#000000" points="520.305,-442.57 509.7892,-443.8619 518.8154,-449.4097 520.305,-442.57"/>
</g>
<!-- ECDH -->
<g id="node43" class="node">
<title>ECDH</title>
<ellipse fill="#ffa500" stroke="#ffa500" cx="1681" cy="-179.7401" rx="76.8869" ry="18"/>
<text text-anchor="middle" x="1681" y="-176.0401" font-family="Times,serif" font-size="14.00" fill="#000000">ECDH EdDSA</text>
</g>
<!-- DAKE_message_identity&#45;&gt;ECDH -->
<g id="edge34" class="edge">
<title>DAKE_message_identity&#45;&gt;ECDH</title>
<path fill="none" stroke="#000000" d="M1134.1113,-485.17C1145.4432,-448.586 1176.2663,-365.6038 1233,-323.4802 1289.0874,-281.8365 1321.8892,-315.2255 1386,-287.4802 1425.649,-270.3213 1427.4903,-251.2174 1467,-233.7401 1511.7689,-213.9364 1565.1513,-200.45 1607.4001,-191.9077"/>
<polygon fill="#000000" stroke="#000000" points="1608.2028,-195.3169 1617.3364,-189.9479 1606.8481,-188.4493 1608.2028,-195.3169"/>
</g>
<!-- DAKE_message_auth_r&#45;&gt;otrv4DH -->
<g id="edge39" class="edge">
<title>DAKE_message_auth_r&#45;&gt;otrv4DH</title>
<path fill="none" stroke="#000000" d="M935.8007,-490.0322C976.9791,-481.7506 1025.9106,-468.8165 1067,-449.2203 1150.5398,-409.379 1148.2371,-360.6487 1233,-323.4802 1277.4505,-303.9887 1399.5379,-284.6577 1486.7652,-272.6836"/>
<polygon fill="#000000" stroke="#000000" points="1487.2522,-276.1497 1496.6885,-271.3323 1486.3077,-269.2137 1487.2522,-276.1497"/>
</g>
<!-- DAKE_message_auth_r&#45;&gt;serialization -->
<g id="edge42" class="edge">
<title>DAKE_message_auth_r&#45;&gt;serialization</title>
<path fill="none" stroke="#000000" d="M850.4914,-485.0838C854.1068,-458.7657 860.8409,-409.7444 865.1127,-378.6482"/>
<polygon fill="#000000" stroke="#000000" points="868.6182,-378.8465 866.5118,-368.4632 861.6833,-377.8938 868.6182,-378.8465"/>
</g>
<!-- DAKE_message_auth_r&#45;&gt;ring_signatures -->
<g id="edge41" class="edge">
<title>DAKE_message_auth_r&#45;&gt;ring_signatures</title>
<path fill="none" stroke="#000000" d="M843.8508,-485.1263C838.4428,-465.2009 827.2005,-433.3279 807,-413.2203 779.3666,-385.7141 748.1703,-409.962 727,-377.2203 693.137,-324.8483 716.6823,-247.7666 733.3665,-207.1306"/>
<polygon fill="#000000" stroke="#000000" points="736.618,-208.4283 737.3176,-197.8566 730.1781,-205.6847 736.618,-208.4283"/>
</g>
<!-- key_derivation_functions -->
<g id="node17" class="node">
<title>key_derivation_functions</title>
<ellipse fill="#00ff00" stroke="#00ff00" cx="746" cy="-98.8701" rx="128.8774" ry="18"/>
<text text-anchor="middle" x="746" y="-95.1701" font-family="Times,serif" font-size="14.00" fill="#000000">Key Derivation Functions</text>
</g>
<!-- DAKE_message_auth_r&#45;&gt;key_derivation_functions -->
<g id="edge40" class="edge">
<title>DAKE_message_auth_r&#45;&gt;key_derivation_functions</title>
<path fill="none" stroke="#000000" d="M735.3921,-494.4916C504.7195,-475.0943 0,-424.213 0,-350.3503 0,-350.3503 0,-350.3503 0,-260.6102 0,-243.1436 35.929,-204.9304 169,-161.7401 249.6115,-135.5764 473.4097,-116.6515 617.4194,-106.7488"/>
<polygon fill="#000000" stroke="#000000" points="617.9084,-110.2237 627.6471,-106.0515 617.4321,-103.2399 617.9084,-110.2237"/>
</g>
<!-- DAKE_message_auth_r&#45;&gt;user_profile -->
<g id="edge37" class="edge">
<title>DAKE_message_auth_r&#45;&gt;user_profile</title>
<path fill="none" stroke="#000000" d="M761.9188,-489.7839C699.3308,-479.6476 612.6712,-464.8539 537,-449.2203 531.7545,-448.1366 526.3172,-446.9521 520.8761,-445.7248"/>
<polygon fill="#000000" stroke="#000000" points="521.6485,-442.3111 511.1185,-443.4818 520.0802,-449.1332 521.6485,-442.3111"/>
</g>
<!-- DAKE_message_auth_r&#45;&gt;ECDH -->
<g id="edge38" class="edge">
<title>DAKE_message_auth_r&#45;&gt;ECDH</title>
<path fill="none" stroke="#000000" d="M871.5099,-485.4255C920.9445,-448.9419 1040.4831,-365.5655 1154,-323.4802 1238.2747,-292.2362 1278.7951,-338.1957 1353,-287.4802 1376.1401,-271.6651 1362.8764,-249.5793 1386,-233.7401 1403.8934,-221.4835 1523.4667,-202.3056 1604.7782,-190.4084"/>
<polygon fill="#000000" stroke="#000000" points="1605.5983,-193.8261 1614.9903,-188.923 1604.5906,-186.899 1605.5983,-193.8261"/>
</g>
<!-- DAKE_message_auth_i&#45;&gt;serialization -->
<g id="edge44" class="edge">
<title>DAKE_message_auth_i&#45;&gt;serialization</title>
<path fill="none" stroke="#000000" d="M713.7786,-414.0699C744.2066,-401.579 785.5892,-384.5911 817.9736,-371.297"/>
<polygon fill="#000000" stroke="#000000" points="819.3599,-374.5114 827.2816,-367.476 816.7015,-368.0358 819.3599,-374.5114"/>
</g>
<!-- DAKE_message_auth_i&#45;&gt;ring_signatures -->
<g id="edge45" class="edge">
<title>DAKE_message_auth_i&#45;&gt;ring_signatures</title>
<path fill="none" stroke="#000000" d="M670.2641,-413.0217C667.6061,-376.9188 665.4976,-294.4817 694,-233.7401 699.1314,-222.8046 707.377,-212.7006 715.8042,-204.2625"/>
<polygon fill="#000000" stroke="#000000" points="718.3137,-206.7066 723.183,-197.297 713.5086,-201.6164 718.3137,-206.7066"/>
</g>
<!-- DAKE_message_auth_i&#45;&gt;key_derivation_functions -->
<g id="edge43" class="edge">
<title>DAKE_message_auth_i&#45;&gt;key_derivation_functions</title>
<path fill="none" stroke="#000000" d="M664.2773,-413.1538C646.1242,-367.7139 605.5751,-246.2732 651,-161.7401 660.3208,-144.3947 676.7609,-131.0316 693.3728,-121.1769"/>
<polygon fill="#000000" stroke="#000000" points="695.5363,-123.9786 702.5752,-116.06 692.1345,-117.8608 695.5363,-123.9786"/>
</g>
<!-- encoding_decoding&#45;&gt;ed448_crypto_primitives -->
<g id="edge19" class="edge">
<title>encoding_decoding&#45;&gt;ed448_crypto_primitives</title>
<path fill="none" stroke="#000000" d="M1270.1996,-245.5675C1362.3869,-229.937 1492.3651,-206.5519 1500,-197.7401 1514.3455,-181.1832 1515.6451,-156.6027 1513.3336,-136.0933"/>
<polygon fill="#000000" stroke="#000000" points="1516.7852,-135.5056 1511.8983,-126.1051 1509.8564,-136.5013 1516.7852,-135.5056"/>
</g>
<!-- ring_signatures&#45;&gt;ed448_crypto_primitives -->
<g id="edge26" class="edge">
<title>ring_signatures&#45;&gt;ed448_crypto_primitives</title>
<path fill="none" stroke="#000000" d="M807.6956,-167.1897C818.7551,-165.1859 830.1968,-163.2716 841,-161.7401 939.3291,-147.8003 1204.0035,-124.3145 1367.956,-110.3339"/>
<polygon fill="#000000" stroke="#000000" points="1368.4523,-113.8044 1378.1192,-109.4684 1367.8583,-106.8296 1368.4523,-113.8044"/>
</g>
<!-- ring_signatures&#45;&gt;key_derivation_functions -->
<g id="edge27" class="edge">
<title>ring_signatures&#45;&gt;key_derivation_functions</title>
<path fill="none" stroke="#000000" d="M746,-161.3894C746,-151.3599 746,-138.7154 746,-127.4265"/>
<polygon fill="#000000" stroke="#000000" points="749.5001,-127.1481 746,-117.1481 742.5001,-127.1481 749.5001,-127.1481"/>
</g>
<!-- Double_Ratchet -->
<g id="node34" class="node">
<title>Double_Ratchet</title>
<ellipse fill="none" stroke="#000000" cx="1618" cy="-350.3503" rx="83.3857" ry="18"/>
<text text-anchor="middle" x="1618" y="-346.6503" font-family="Times,serif" font-size="14.00" fill="#000000">Double Ratchet</text>
</g>
<!-- key_management&#45;&gt;Double_Ratchet -->
<g id="edge49" class="edge">
<title>key_management&#45;&gt;Double_Ratchet</title>
<path fill="none" stroke="#000000" d="M1424.2744,-415.6278C1463.9545,-402.2572 1521.1941,-382.9699 1563.1667,-368.8269"/>
<polygon fill="#000000" stroke="#000000" points="1564.3227,-372.1307 1572.6816,-365.6207 1562.0874,-365.4972 1564.3227,-372.1307"/>
</g>
<!-- calculate_message_keys -->
<g id="node35" class="node">
<title>calculate_message_keys</title>
<ellipse fill="#ffa500" stroke="#ffa500" cx="1394" cy="-350.3503" rx="122.6784" ry="18"/>
<text text-anchor="middle" x="1394" y="-346.6503" font-family="Times,serif" font-size="14.00" fill="#000000">Calculate message keys</text>
</g>
<!-- key_management&#45;&gt;calculate_message_keys -->
<g id="edge59" class="edge">
<title>key_management&#45;&gt;calculate_message_keys</title>
<path fill="none" stroke="#000000" d="M1381.6306,-412.8697C1383.6496,-402.6654 1386.204,-389.7542 1388.4667,-378.3179"/>
<polygon fill="#000000" stroke="#000000" points="1391.9313,-378.8389 1390.4388,-368.3498 1385.0644,-377.4803 1391.9313,-378.8389"/>
</g>
<!-- shared_secrets -->
<g id="node36" class="node">
<title>shared_secrets</title>
<ellipse fill="#ffa500" stroke="#ffa500" cx="1800" cy="-350.3503" rx="81.4863" ry="18"/>
<text text-anchor="middle" x="1800" y="-346.6503" font-family="Times,serif" font-size="14.00" fill="#000000">Shared secrets</text>
</g>
<!-- key_management&#45;&gt;shared_secrets -->
<g id="edge50" class="edge">
<title>key_management&#45;&gt;shared_secrets</title>
<path fill="none" stroke="#000000" d="M1444.9305,-418.9424C1455.9705,-416.9834 1467.3005,-415.0132 1478,-413.2203 1580.9104,-395.9766 1608.2165,-400.199 1710,-377.2203 1721.1952,-374.6929 1733.0375,-371.5242 1744.3248,-368.2578"/>
<polygon fill="#000000" stroke="#000000" points="1745.4739,-371.5679 1754.0709,-365.3759 1743.4889,-364.8552 1745.4739,-371.5679"/>
</g>
<!-- shake256 -->
<g id="node42" class="node">
<title>shake256</title>
<ellipse fill="#00ff00" stroke="#00ff00" cx="973" cy="-18" rx="66.0889" ry="18"/>
<text text-anchor="middle" x="973" y="-14.3" font-family="Times,serif" font-size="14.00" fill="#000000">SHAKE&#45;256</text>
</g>
<!-- key_derivation_functions&#45;&gt;shake256 -->
<g id="edge61" class="edge">
<title>key_derivation_functions&#45;&gt;shake256</title>
<path fill="none" stroke="#000000" d="M793.0345,-82.1137C830.9849,-68.5937 884.2423,-49.6204 922.9697,-35.8236"/>
<polygon fill="#000000" stroke="#000000" points="924.239,-39.0869 932.4844,-32.4339 921.8898,-32.4929 924.239,-39.0869"/>
</g>
<!-- session_management&#45;&gt;key_management -->
<g id="edge63" class="edge">
<title>session_management&#45;&gt;key_management</title>
<path fill="none" stroke="#000000" d="M1455.908,-557.2738C1440.5188,-532.3743 1412.5676,-487.1499 1394.6632,-458.181"/>
<polygon fill="#000000" stroke="#000000" points="1397.4665,-456.0594 1389.2317,-449.3931 1391.512,-459.7396 1397.4665,-456.0594"/>
</g>
<!-- session_expiration -->
<g id="node19" class="node">
<title>session_expiration</title>
<ellipse fill="none" stroke="#000000" cx="2727" cy="-503.2203" rx="96.6831" ry="18"/>
<text text-anchor="middle" x="2727" y="-499.5203" font-family="Times,serif" font-size="14.00" fill="#000000">Session expiration</text>
</g>
<!-- session_management&#45;&gt;session_expiration -->
<g id="edge62" class="edge">
<title>session_management&#45;&gt;session_expiration</title>
<path fill="none" stroke="#000000" d="M1570.9146,-569.2824C1808.1999,-555.7232 2387.5648,-522.6166 2623.9838,-509.107"/>
<polygon fill="#000000" stroke="#000000" points="2624.5141,-512.5825 2634.2982,-508.5176 2624.1147,-505.5939 2624.5141,-512.5825"/>
</g>
<!-- session_expiration&#45;&gt;remapping_tlv_types -->
<g id="edge64" class="edge">
<title>session_expiration&#45;&gt;remapping_tlv_types</title>
<path fill="none" stroke="#000000" d="M2797.2563,-490.7611C2862.1767,-479.2481 2959.3519,-462.0151 3032.4781,-449.0469"/>
<polygon fill="#000000" stroke="#000000" points="3033.3958,-452.4388 3042.631,-447.2464 3032.1735,-445.5464 3033.3958,-452.4388"/>
</g>
<!-- expiration_timer -->
<g id="node32" class="node">
<title>expiration_timer</title>
<ellipse fill="none" stroke="#000000" cx="2832" cy="-431.2203" rx="87.9851" ry="18"/>
<text text-anchor="middle" x="2832" y="-427.5203" font-family="Times,serif" font-size="14.00" fill="#000000">Expiration timer</text>
</g>
<!-- session_expiration&#45;&gt;expiration_timer -->
<g id="edge67" class="edge">
<title>session_expiration&#45;&gt;expiration_timer</title>
<path fill="none" stroke="#000000" d="M2752.4176,-485.7912C2766.2177,-476.3282 2783.4559,-464.5077 2798.3568,-454.29"/>
<polygon fill="#000000" stroke="#000000" points="2800.5486,-457.0309 2806.8165,-448.489 2796.5898,-451.2578 2800.5486,-457.0309"/>
</g>
<!-- secure_key_deletion -->
<g id="node33" class="node">
<title>secure_key_deletion</title>
<ellipse fill="none" stroke="#000000" cx="2623" cy="-431.2203" rx="103.1819" ry="18"/>
<text text-anchor="middle" x="2623" y="-427.5203" font-family="Times,serif" font-size="14.00" fill="#000000">Secure key deletion</text>
</g>
<!-- session_expiration&#45;&gt;secure_key_deletion -->
<g id="edge65" class="edge">
<title>session_expiration&#45;&gt;secure_key_deletion</title>
<path fill="none" stroke="#000000" d="M2701.8245,-485.7912C2688.2563,-476.3978 2671.3327,-464.6814 2656.6487,-454.5156"/>
<polygon fill="#000000" stroke="#000000" points="2658.5183,-451.553 2648.3041,-448.7386 2654.5338,-457.3084 2658.5183,-451.553"/>
</g>
<!-- session_expiration&#45;&gt;protocol_state_machine -->
<g id="edge66" class="edge">
<title>session_expiration&#45;&gt;protocol_state_machine</title>
<path fill="none" stroke="#000000" d="M2806.9651,-492.9263C2829.2888,-490.2252 2853.5718,-487.4479 2876,-485.2203 3080.9474,-464.8653 3133.2728,-471.6824 3338,-449.2203 3348.5925,-448.0582 3359.6623,-446.7016 3370.661,-445.2638"/>
<polygon fill="#000000" stroke="#000000" points="3371.2755,-448.713 3380.7261,-443.9239 3370.3516,-441.7742 3371.2755,-448.713"/>
</g>
<!-- user_profile&#45;&gt;ed448_crypto_primitives -->
<g id="edge68" class="edge">
<title>user_profile&#45;&gt;ed448_crypto_primitives</title>
<path fill="none" stroke="#000000" d="M505.8216,-417.6108C527.3178,-409.0095 552.1438,-395.9229 569,-377.2203 637.6019,-301.1041 568.7172,-222.8092 651,-161.7401 697.0617,-127.5538 1108.797,-130.0064 1166,-125.7401 1232.2275,-120.8008 1305.7067,-115.0142 1367.2777,-110.0786"/>
<polygon fill="#000000" stroke="#000000" points="1367.7587,-113.5514 1377.4467,-109.2625 1367.1987,-106.5738 1367.7587,-113.5514"/>
</g>
<!-- user_profile&#45;&gt;serialization -->
<g id="edge69" class="edge">
<title>user_profile&#45;&gt;serialization</title>
<path fill="none" stroke="#000000" d="M511.1412,-419.0666C519.7436,-417.042 528.6207,-415.0181 537,-413.2203 618.0175,-395.8378 710.7031,-378.4974 777.5167,-366.4444"/>
<polygon fill="#000000" stroke="#000000" points="778.3745,-369.8463 787.5966,-364.6307 777.1348,-362.9569 778.3745,-369.8463"/>
</g>
<!-- user_profile_validation -->
<g id="node21" class="node">
<title>user_profile_validation</title>
<ellipse fill="none" stroke="#000000" cx="445" cy="-350.3503" rx="115.0796" ry="18"/>
<text text-anchor="middle" x="445" y="-346.6503" font-family="Times,serif" font-size="14.00" fill="#000000">User profile validation</text>
</g>
<!-- user_profile&#45;&gt;user_profile_validation -->
<g id="edge71" class="edge">
<title>user_profile&#45;&gt;user_profile_validation</title>
<path fill="none" stroke="#000000" d="M458.1424,-412.8697C455.9974,-402.6654 453.2832,-389.7542 450.8792,-378.3179"/>
<polygon fill="#000000" stroke="#000000" points="454.2661,-377.4158 448.7837,-368.3498 447.4159,-378.8559 454.2661,-377.4158"/>
</g>
<!-- user_profile_signatures -->
<g id="node24" class="node">
<title>user_profile_signatures</title>
<ellipse fill="none" stroke="#000000" cx="296" cy="-179.7401" rx="118.0794" ry="18"/>
<text text-anchor="middle" x="296" y="-176.0401" font-family="Times,serif" font-size="14.00" fill="#000000">User profile signatures</text>
</g>
<!-- user_profile&#45;&gt;user_profile_signatures -->
<g id="edge70" class="edge">
<title>user_profile&#45;&gt;user_profile_signatures</title>
<path fill="none" stroke="#000000" d="M409.2007,-420.3291C309.2613,-398.5275 98.6941,-346.5202 57,-287.4802 43.2221,-267.9703 42.0878,-252.3975 57,-233.7401 73.7519,-212.781 132.0281,-199.3656 186.8373,-191.1485"/>
<polygon fill="#000000" stroke="#000000" points="187.625,-194.5711 197.0202,-189.6741 186.6219,-187.6433 187.625,-194.5711"/>
</g>
<!-- user_profile_expiration -->
<g id="node22" class="node">
<title>user_profile_expiration</title>
<ellipse fill="none" stroke="#000000" cx="186" cy="-260.6102" rx="119.6788" ry="18"/>
<text text-anchor="middle" x="186" y="-256.9102" font-family="Times,serif" font-size="14.00" fill="#000000">User profile: expiration</text>
</g>
<!-- user_profile_validation&#45;&gt;user_profile_expiration -->
<g id="edge74" class="edge">
<title>user_profile_validation&#45;&gt;user_profile_expiration</title>
<path fill="none" stroke="#000000" d="M397.4954,-333.8906C354.1394,-318.8683 289.9532,-296.6286 243.671,-280.5924"/>
<polygon fill="#000000" stroke="#000000" points="244.6753,-277.2363 234.0805,-277.2695 242.3835,-283.8505 244.6753,-277.2363"/>
</g>
<!-- user_profile_signature_verification -->
<g id="node23" class="node">
<title>user_profile_signature_verification</title>
<ellipse fill="none" stroke="#000000" cx="445" cy="-260.6102" rx="120.8306" ry="26.7407"/>
<text text-anchor="middle" x="445" y="-264.4102" font-family="Times,serif" font-size="14.00" fill="#000000">User profile:</text>
<text text-anchor="middle" x="445" y="-249.4102" font-family="Times,serif" font-size="14.00" fill="#000000">signature verification</text>
</g>
<!-- user_profile_validation&#45;&gt;user_profile_signature_verification -->
<g id="edge72" class="edge">
<title>user_profile_validation&#45;&gt;user_profile_signature_verification</title>
<path fill="none" stroke="#000000" d="M445,-332.19C445,-322.287 445,-309.6549 445,-297.7674"/>
<polygon fill="#000000" stroke="#000000" points="448.5001,-297.5998 445,-287.5998 441.5001,-297.5998 448.5001,-297.5998"/>
</g>
<!-- user_profile_signature_verification&#45;&gt;user_profile_signatures -->
<g id="edge73" class="edge">
<title>user_profile_signature_verification&#45;&gt;user_profile_signatures</title>
<path fill="none" stroke="#000000" d="M399.0793,-235.6866C379.2964,-224.9494 356.3445,-212.4922 337.127,-202.0619"/>
<polygon fill="#000000" stroke="#000000" points="338.7635,-198.9678 328.305,-197.2737 335.4243,-205.1201 338.7635,-198.9678"/>
</g>
<!-- noninteractive_DAKE -->
<g id="node26" class="node">
<title>noninteractive_DAKE</title>
<ellipse fill="none" stroke="#000000" cx="2014" cy="-350.3503" rx="114.2798" ry="18"/>
<text text-anchor="middle" x="2014" y="-346.6503" font-family="Times,serif" font-size="14.00" fill="#000000">Non&#45;interactive DAKE</text>
</g>
<!-- offline_support&#45;&gt;noninteractive_DAKE -->
<g id="edge28" class="edge">
<title>offline_support&#45;&gt;noninteractive_DAKE</title>
<path fill="none" stroke="#000000" d="M1703.8544,-415.9271C1756.0527,-405.2152 1827.3038,-390.4988 1890,-377.2203 1905.2024,-374.0006 1921.4428,-370.5149 1936.9945,-367.1543"/>
<polygon fill="#000000" stroke="#000000" points="1938.0634,-370.5041 1947.0969,-364.968 1936.5828,-363.6624 1938.0634,-370.5041"/>
</g>
<!-- noninteractive_DAKE&#45;&gt;otrv4DH -->
<g id="edge48" class="edge">
<title>noninteractive_DAKE&#45;&gt;otrv4DH</title>
<path fill="none" stroke="#000000" d="M1947.1037,-335.6999C1928.6143,-331.6928 1908.5377,-327.3806 1890,-323.4802 1812.0926,-307.0884 1722.9617,-288.963 1660.6965,-276.4025"/>
<polygon fill="#000000" stroke="#000000" points="1661.0484,-272.9031 1650.5539,-274.3578 1659.6649,-279.765 1661.0484,-272.9031"/>
</g>
<!-- noninteractive_DAKE&#45;&gt;ed448_crypto_primitives -->
<g id="edge46" class="edge">
<title>noninteractive_DAKE&#45;&gt;ed448_crypto_primitives</title>
<path fill="none" stroke="#000000" d="M2011.3242,-332.2832C2004.6208,-293.9603 1983.3323,-204.5375 1926,-161.7401 1883.0084,-129.6478 1753.3622,-113.7351 1649.1831,-105.9722"/>
<polygon fill="#000000" stroke="#000000" points="1649.4118,-102.4797 1639.1846,-105.2461 1648.9048,-109.4613 1649.4118,-102.4797"/>
</g>
<!-- noninteractive_DAKE&#45;&gt;ECDH -->
<g id="edge47" class="edge">
<title>noninteractive_DAKE&#45;&gt;ECDH</title>
<path fill="none" stroke="#000000" d="M1947.6569,-335.6348C1881.379,-320.5219 1787.3182,-297.7965 1773,-287.4802 1749.874,-270.8179 1756.2498,-255.635 1738,-233.7401 1729.3226,-223.3296 1718.788,-212.8605 1709.1476,-203.9486"/>
<polygon fill="#000000" stroke="#000000" points="1711.4214,-201.2859 1701.6604,-197.1661 1706.7218,-206.4737 1711.4214,-201.2859"/>
</g>
<!-- secretK -->
<g id="node38" class="node">
<title>secretK</title>
<ellipse fill="none" stroke="#000000" cx="1833" cy="-260.6102" rx="51.1914" ry="18"/>
<text text-anchor="middle" x="1833" y="-256.9102" font-family="Times,serif" font-size="14.00" fill="#000000">Secret K</text>
</g>
<!-- otrv4_extra_symmetric_key&#45;&gt;secretK -->
<g id="edge58" class="edge">
<title>otrv4_extra_symmetric_key&#45;&gt;secretK</title>
<path fill="none" stroke="#000000" d="M2195.0899,-330.4897C2100.5573,-312.2459 1964.0287,-285.8973 1888.5069,-271.3224"/>
<polygon fill="#000000" stroke="#000000" points="1888.7482,-267.8045 1878.2661,-269.3461 1887.4217,-274.6777 1888.7482,-267.8045"/>
</g>
<!-- fingerprints&#45;&gt;shake256 -->
<g id="edge25" class="edge">
<title>fingerprints&#45;&gt;shake256</title>
<path fill="none" stroke="#000000" d="M1063.1019,-81.917C1046.3815,-70.0559 1023.8457,-54.0692 1005.4951,-41.0516"/>
<polygon fill="#000000" stroke="#000000" points="1007.048,-37.862 996.8667,-34.9307 1002.9978,-43.5713 1007.048,-37.862"/>
</g>
<!-- calculate_message_keys&#45;&gt;key_derivation_functions -->
<g id="edge60" class="edge">
<title>calculate_message_keys&#45;&gt;key_derivation_functions</title>
<path fill="none" stroke="#000000" d="M1392.2006,-332.2094C1388.7941,-307.0489 1379.211,-261.5267 1353,-233.7401 1296.1348,-173.4566 1260.8698,-183.8437 1181,-161.7401 1078.1453,-133.2755 957.8392,-117.1479 869.8495,-108.373"/>
<polygon fill="#000000" stroke="#000000" points="870.1167,-104.8826 859.8231,-107.391 869.4342,-111.8492 870.1167,-104.8826"/>
</g>
<!-- shared_secrets&#45;&gt;otrv4DH -->
<g id="edge52" class="edge">
<title>shared_secrets&#45;&gt;otrv4DH</title>
<path fill="none" stroke="#000000" d="M1761.2772,-334.41C1725.296,-319.5982 1671.5039,-297.4546 1632.2314,-281.288"/>
<polygon fill="#000000" stroke="#000000" points="1633.1589,-277.8849 1622.5794,-277.3148 1630.4942,-284.3579 1633.1589,-277.8849"/>
</g>
<!-- brace_key -->
<g id="node37" class="node">
<title>brace_key</title>
<ellipse fill="#ffa500" stroke="#ffa500" cx="1859" cy="-179.7401" rx="57.6901" ry="18"/>
<text text-anchor="middle" x="1859" y="-176.0401" font-family="Times,serif" font-size="14.00" fill="#000000">Brace key</text>
</g>
<!-- shared_secrets&#45;&gt;brace_key -->
<g id="edge54" class="edge">
<title>shared_secrets&#45;&gt;brace_key</title>
<path fill="none" stroke="#000000" d="M1839.6386,-334.466C1859.4919,-324.2413 1881.6656,-308.8238 1893,-287.4802 1904.2021,-266.3856 1899.6227,-256.6881 1893,-233.7401 1890.1729,-223.9442 1884.9844,-214.2126 1879.4977,-205.7652"/>
<polygon fill="#000000" stroke="#000000" points="1882.3293,-203.7063 1873.7585,-197.4779 1876.5745,-207.6917 1882.3293,-203.7063"/>
</g>
<!-- shared_secrets&#45;&gt;secretK -->
<g id="edge55" class="edge">
<title>shared_secrets&#45;&gt;secretK</title>
<path fill="none" stroke="#000000" d="M1806.678,-332.19C1811.2852,-319.6614 1817.4986,-302.7647 1822.7316,-288.5339"/>
<polygon fill="#000000" stroke="#000000" points="1826.1654,-289.3369 1826.3319,-278.7434 1819.5956,-286.921 1826.1654,-289.3369"/>
</g>
<!-- shared_secrets&#45;&gt;ECDH -->
<g id="edge53" class="edge">
<title>shared_secrets&#45;&gt;ECDH</title>
<path fill="none" stroke="#000000" d="M1780.7943,-332.7757C1768.2907,-320.7505 1752.1142,-304.042 1740,-287.4802 1721.2458,-261.8407 1704.3411,-229.5616 1693.483,-207.0501"/>
<polygon fill="#000000" stroke="#000000" points="1696.5206,-205.2871 1689.0734,-197.7511 1690.1957,-208.2864 1696.5206,-205.2871"/>
</g>
<!-- secretK&#45;&gt;brace_key -->
<g id="edge57" class="edge">
<title>secretK&#45;&gt;brace_key</title>
<path fill="none" stroke="#000000" d="M1838.7702,-242.6625C1842.0796,-232.3692 1846.3054,-219.2252 1850.0381,-207.6151"/>
<polygon fill="#000000" stroke="#000000" points="1853.4272,-208.5086 1853.156,-197.9173 1846.7631,-206.3661 1853.4272,-208.5086"/>
</g>
<!-- secretK&#45;&gt;ECDH -->
<g id="edge56" class="edge">
<title>secretK&#45;&gt;ECDH</title>
<path fill="none" stroke="#000000" d="M1804.41,-245.3991C1780.8702,-232.875 1747.227,-214.9755 1721.0116,-201.0279"/>
<polygon fill="#000000" stroke="#000000" points="1722.5497,-197.8817 1712.0775,-196.2746 1719.2618,-204.0615 1722.5497,-197.8817"/>
</g>
<!-- ECDH&#45;&gt;ed448_crypto_primitives -->
<g id="edge51" class="edge">
<title>ECDH&#45;&gt;ed448_crypto_primitives</title>
<path fill="none" stroke="#000000" d="M1645.8068,-163.5692C1623.5525,-153.3436 1594.1484,-139.8328 1567.9683,-127.8033"/>
<polygon fill="#000000" stroke="#000000" points="1569.4075,-124.6128 1558.8595,-123.6179 1566.4848,-130.9735 1569.4075,-124.6128"/>
</g>
</g>
</svg>
